<svg xmlns="http://www.w3.org/2000/svg" width="34" height="34" viewBox="0 0 34 34"><g transform="translate(-1109 -851)"><g transform="translate(-1328.946 -1543.263)"><path d="M2463.986,2405.095a7.8,7.8,0,0,1-2.244.615,3.916,3.916,0,0,0,1.718-2.161,7.835,7.835,0,0,1-2.481.948,3.909,3.909,0,0,0-6.656,3.563,11.09,11.09,0,0,1-8.052-4.082,3.911,3.911,0,0,0,1.209,5.216,3.906,3.906,0,0,1-1.769-.489v.049a3.908,3.908,0,0,0,3.133,3.83,3.915,3.915,0,0,1-1.764.067,3.91,3.91,0,0,0,3.649,2.713,7.834,7.834,0,0,1-4.851,1.672,7.919,7.919,0,0,1-.932-.054,11.109,11.109,0,0,0,17.1-9.36c0-.169,0-.337-.011-.505A7.96,7.96,0,0,0,2463.986,2405.095Z" fill="#09a7e2"/></g><g transform="translate(1109 851)" fill="none" stroke="#09a7e2" stroke-width="1"><rect width="34" height="34" stroke="none"/><rect x="0.5" y="0.5" width="33" height="33" fill="none"/></g></g></svg>