<svg xmlns="http://www.w3.org/2000/svg" width="200" height="24.21" viewBox="0 0 200 24.21"><g transform="translate(-215.074 -212.05)"><path d="M254.735,235.818h-4.681V229a1.482,1.482,0,0,0-1.631-1.536h-5.852v8.351h-4.717V220.285a8.192,8.192,0,0,1,2.341-5.779,8.892,8.892,0,0,1,6.314-2.438c4.893,0,8.688,3.406,8.688,7.482A6.568,6.568,0,0,1,252.643,225a4.118,4.118,0,0,1,2.092,3.808Zm-4.256-15.967a3.612,3.612,0,0,0-3.9-3.54,3.782,3.782,0,0,0-4.009,3.974v3.139h4.043C249.1,223.425,250.48,222.022,250.48,219.851Z" transform="translate(18.121 0.016)" fill="#09a7e2"/><path d="M266.917,228.859v6.671h-4.683v-6.572c0-2.035-.992-2.967-3.191-2.967H253.8v9.539h-4.717V212.383H253.8v9.507h5.247c2.2,0,3.191-.936,3.191-2.969v-6.538h4.683v6.671a5.165,5.165,0,0,1-2.59,4.9A5.13,5.13,0,0,1,266.917,228.859Z" transform="translate(27.039 0.305)" fill="#09a7e2"/><path d="M271.9,236.26a12.106,12.106,0,0,1,0-24.21c5.569,0,9.683,2.975,11.207,7.724h-5.071A6.814,6.814,0,0,0,271.9,216.1c-4.041,0-7.233,3.679-7.233,8.058,0,4.416,3.191,8.093,7.233,8.093a6.911,6.911,0,0,0,6.136-3.744h5.035A11.249,11.249,0,0,1,271.9,236.26Z" transform="translate(35.563 0)" fill="#09a7e2"/><path d="M291.829,235.53h-4.681v-9.773H278.39v9.773h-4.717V212.383h4.717v9.273h8.758v-9.273h4.681Z" transform="translate(46.585 0.305)" fill="#09a7e2"/><path d="M303.328,235.818h-4.681v-6.481h-8.475v6.481h-4.683V220.453a8.149,8.149,0,0,1,2.483-6.014,9.92,9.92,0,0,1,12.872,0,8.142,8.142,0,0,1,2.483,6.014Zm-4.681-15.466c0-2.472-1.6-3.976-4.256-3.976-2.625,0-4.219,1.5-4.219,3.976v4.742h8.475Z" transform="translate(55.992 0.016)" fill="#09a7e2"/><path d="M309.559,217.8c-1.206,1.034-2.022,2.568-2.022,6.171,0,3.236-.425,6.9-3.687,9.439-1.916,1.5-4.539,2.168-7.767,2.136v-4.17a8.131,8.131,0,0,0,4.822-1.268c1.17-.933,1.951-2.434,1.951-6.137,0-4.437,1.1-7.305,3.653-9.374,1.773-1.5,4.361-2.2,7.482-2.235v4.2A7.244,7.244,0,0,0,309.559,217.8Z" transform="translate(64.413 0.287)" fill="#09a7e2"/><path d="M311.024,221.89h9.965v4.1h-9.965v2.234c0,2.135.886,2.967,3.12,2.967H322.8v4.337h-8.688c-5.071,0-7.765-2.937-7.765-7.371v-8.4c0-4.436,2.694-7.371,7.765-7.371H322.8v4.336h-8.651c-2.234,0-3.12.8-3.12,2.935Z" transform="translate(71.358 0.305)" fill="#09a7e2"/><path d="M333.686,235.818h-4.679V229a1.484,1.484,0,0,0-1.633-1.536h-5.85v8.351h-4.717V220.285a8.2,8.2,0,0,1,2.339-5.779,8.888,8.888,0,0,1,6.312-2.438c4.9,0,8.69,3.406,8.69,7.482A6.568,6.568,0,0,1,331.594,225a4.118,4.118,0,0,1,2.092,3.808Zm-4.256-15.967a3.612,3.612,0,0,0-3.9-3.54,3.778,3.778,0,0,0-4,3.974v3.139h4.043C328.048,223.425,329.431,222.022,329.431,219.851Z" transform="translate(80.926 0.016)" fill="#09a7e2"/><path d="M224.225,212.068c-5.179,0-9.151,3.808-9.151,8.484v15.266h4.683V220.653a4.487,4.487,0,1,1,4.468,4.375h-1.064v4.043h1.419a8.757,8.757,0,0,0,8.829-8.518C233.408,215.876,229.438,212.068,224.225,212.068Z" transform="translate(0 0.016)" fill="#09a7e2"/><path d="M241.617,214.439a9.921,9.921,0,0,0-12.873,0,8.142,8.142,0,0,0-2.483,6.014v15.365h4.681V220.352c0-2.472,1.6-3.976,4.219-3.976,2.661,0,4.256,1.5,4.256,3.976v4.742h-8.6v4.243h8.6v6.481H244.1V220.453A8.149,8.149,0,0,0,241.617,214.439Z" transform="translate(10.23 0.016)" fill="#09a7e2"/></g></svg>